<?xml version="1.0" encoding="UTF-8" standalone="no"?>
<!DOCTYPE svg PUBLIC "-//W3C//DTD SVG 1.1//EN" "http://www.w3.org/Graphics/SVG/1.1/DTD/svg11.dtd">
<svg width="100%" height="100%" viewBox="0 0 1024 1024" version="1.1" xmlns="http://www.w3.org/2000/svg" xmlns:xlink="http://www.w3.org/1999/xlink" xml:space="preserve" xmlns:serif="http://www.serif.com/" style="fill-rule:evenodd;clip-rule:evenodd;stroke-linejoin:round;stroke-miterlimit:2;">
    <circle cx="512" cy="512" r="512" style="fill:white;fill-opacity:0.3;"/>
    <path d="M512,0C794.58,0 1024,229.42 1024,512C1024,794.58 794.58,1024 512,1024C229.42,1024 -0,794.58 -0,512C-0,229.42 229.42,0 512,0ZM512,20C783.542,20 1004,240.458 1004,512C1004,783.542 783.542,1004 512,1004C240.458,1004 20,783.542 20,512C20,240.458 240.458,20 512,20Z" style="fill:url(#_Linear1);"/>
    <path d="M512,0C794.58,0 1024,229.42 1024,512C1024,794.58 794.58,1024 512,1024C229.42,1024 -0,794.58 -0,512C-0,229.42 229.42,0 512,0ZM512,20C783.542,20 1004,240.458 1004,512C1004,783.542 783.542,1004 512,1004C240.458,1004 20,783.542 20,512C20,240.458 240.458,20 512,20Z" style="fill:url(#_Linear2);"/>
    <g transform="matrix(1.04039,0.219928,-0.219928,1.04039,193.441,-129.874)">
        <g id="tale-base-tip" serif:id="tale base tip" transform="matrix(1,0,0,1,2.195,-1.56471)">
            <path d="M594.569,741.635C594.569,741.635 605.523,773.845 609.027,779.577C610.244,781.568 617.015,780.764 618.997,780.172C620.979,779.581 623.891,776.454 623.891,776.454L594.569,741.635Z" style="fill:url(#_Linear3);"/>
        </g>
        <path id="underside-of-wing" serif:id="underside of wing" d="M587.729,637.119L563,699L625.478,774.999L710.96,621.355L684.454,576.962L602,650L587.729,637.119Z" style="fill:url(#_Linear4);"/>
        <path id="wing-6" serif:id="wing 6" d="M600.639,651.621L586.859,639.266L606.424,592.516L600.639,651.621Z" style="fill:url(#_Linear5);"/>
        <path id="wing-7" serif:id="wing 7" d="M335.335,487.641L557,713L606.424,592.516L335.335,487.641Z" style="fill:url(#_Linear6);"/>
        <path id="middle-bottom" serif:id="middle bottom" d="M321.869,622.849L388,563L473,696L344.064,735.938L321.869,622.849Z" style="fill:url(#_Linear7);"/>
        <path id="right-side-of-head-and-neck" serif:id="right side of head and neck" d="M43,421C43,421 37.631,414.769 40.018,413.59C62.124,402.677 175.634,355.521 175.634,355.521L291,427L308,525L336,482L301,567L276,438L172,372L43,421Z" style="fill:url(#_Linear8);"/>
        <g id="horn-right" serif:id="horn right" transform="matrix(1,0,0,1,-18.203,-6.61926)">
            <path d="M193,382L343.837,330.432L229.604,402.144L202,387L193,382Z" style="fill:url(#_Linear9);"/>
        </g>
        <g id="horn-left" serif:id="horn left" transform="matrix(1,0,0,1,-24.4697,-7.32091)">
            <path d="M197,384L251,409L382.555,369.696L197,384Z" style="fill:url(#_Linear10);"/>
        </g>
        <path id="face" d="M39,423C34.607,426.941 68,480 68,480L86.255,480.577L165.851,461.665L173.534,369.404C173.534,369.404 45.487,417.181 39,423Z" style="fill:url(#_Linear11);"/>
        <path id="neck-top" serif:id="neck top" d="M172,369L282,425L303.065,578.394L153.859,663.132L150,638L172,369Z" style="fill:url(#_Linear12);"/>
        <path id="right-front-foot-tip" serif:id="right front foot tip" d="M266,702L260,719L269,722L289,711L266,702Z" style="fill:url(#_Linear13);"/>
        <path id="neck-bottom" serif:id="neck bottom" d="M153.859,663.132L303,717L315,626L301,567L153.859,663.132Z" style="fill:url(#_Linear14);"/>
        <path id="wing-4" serif:id="wing 4" d="M337.18,468.963L334.149,487.335L670,574C657.35,536.352 561.872,503.347 546,480L337.18,468.963Z" style="fill:url(#_Linear15);"/>
        <path id="wing-5" serif:id="wing 5" d="M334.12,487.171L684.454,576.962L600.639,651.621L606.424,592.516L334.12,487.171Z" style="fill:url(#_Linear16);"/>
        <path id="wing-1" serif:id="wing 1" d="M337,469C397.347,389.723 485.197,252.931 505.907,233.242C508.502,246.876 495.53,281.593 485.604,313.799C477.648,339.613 472.542,365.246 474.465,378.333L337,469Z" style="fill:url(#_Linear17);"/>
        <g id="wing-2" serif:id="wing 2" transform="matrix(1,0,0,1,-0.925322,0.167707)">
            <path d="M338.522,468.435L348.208,465.803L536.282,395.56L543.134,391.976C518.415,386.084 494.208,390.504 475.223,377.24L344.268,463.564L338.522,468.435Z" style="fill:url(#_Linear18);"/>
        </g>
        <path id="wing-3" serif:id="wing 3" d="M337.751,468.012L336.636,472.263L548.354,482.441C542.295,451.799 545.649,403.28 542.064,392.109L337.751,468.012Z" style="fill:url(#_Linear19);"/>
        <path id="middle-top" serif:id="middle top" d="M301,567L334.541,484.963L388,563L326,634L314.621,604.984L301,567Z" style="fill:url(#_Linear20);"/>
        <path id="wing-8" serif:id="wing 8" d="M333.746,485.107L497,733L551,801L552,791L549,772L557,713L333.746,485.107Z" style="fill:url(#_Linear21);"/>
        <path id="tail-inside" serif:id="tail inside" d="M625,776C625,776 703.231,695.533 736,679C794.989,649.239 841.286,663.643 865.141,678.855C878.075,687.103 883,697 883,697C883,697 908.805,625.469 811.068,601.3C753.963,587.178 701,617 701,617L625,776Z" style="fill:url(#_Linear22);"/>
        <path id="tail-outside" serif:id="tail outside" d="M734.603,790.828C734.603,790.828 742.875,809.759 754.354,814.441C776.929,823.648 830.613,825.247 867,795C899.781,767.751 905.504,740.439 901.515,712C896.923,679.261 890.515,657.498 890.515,657.498C890.515,657.498 890.672,700.992 878.299,725.671C865.499,751.201 847.586,772.264 832,782C816.414,791.736 802.444,797.899 784,801C765.556,804.101 734.603,790.828 734.603,790.828Z" style="fill:url(#_Linear23);"/>
        <path id="tail-top" serif:id="tail top" d="M699,605C699,605 753.367,588.32 789,591C824.633,593.68 874.069,611.445 890,656C908.59,707.992 855.601,768.78 834,782C802.73,801.138 767.232,812.548 744,802C727.195,794.37 734.115,769.19 744,774C749.836,776.84 736.367,783.435 746,792C757.781,802.476 820.109,799.727 859,744C897.891,688.273 883.288,650.521 865.921,634C848.555,617.479 820.257,598.72 781,600C741.743,601.28 702,616.569 702,616.569L699,605Z" style="fill:url(#_Linear24);"/>
        <path id="left-front-foot-top" serif:id="left front foot top" d="M301,567L312,624C312,624 285.613,826.091 294.022,847.575C320.346,829.824 345.973,747.616 348.333,738.259C351.656,725.086 333.862,662.72 333.862,662.72L316,599L301,567Z" style="fill:url(#_Linear25);"/>
        <path id="left-front-foot-bottom" serif:id="left front foot bottom" d="M294.542,847.481C299.178,849.556 360.665,799.149 360.665,799.149C360.665,799.149 370.026,791.954 369.075,787.168C364.464,763.976 333,660 333,660C333,660 339.25,696.631 342.405,709.858C345.281,721.92 285.965,843.64 294.542,847.481Z" style="fill:url(#_Linear26);"/>
    </g>
    <g transform="matrix(1.04039,0.219928,-0.219928,1.04039,193.441,-129.874)">
        <g id="tale-base-tip1" serif:id="tale base tip" transform="matrix(1,0,0,1,2.195,-1.56471)">
            <path d="M594.569,741.635C594.569,741.635 605.523,773.845 609.027,779.577C610.244,781.568 617.015,780.764 618.997,780.172C620.979,779.581 623.891,776.454 623.891,776.454L594.569,741.635Z" style="fill:url(#_Linear27);"/>
        </g>
        <path id="underside-of-wing1" serif:id="underside of wing" d="M587.729,637.119L563,699L625.478,774.999L710.96,621.355L684.454,576.962L602,650L587.729,637.119Z" style="fill:url(#_Linear28);"/>
        <path id="wing-61" serif:id="wing 6" d="M600.639,651.621L586.859,639.266L606.424,592.516L600.639,651.621Z" style="fill:url(#_Linear29);"/>
        <path id="wing-71" serif:id="wing 7" d="M335.335,487.641L557,713L606.424,592.516L335.335,487.641Z" style="fill:url(#_Linear30);"/>
        <path id="middle-bottom1" serif:id="middle bottom" d="M321.869,622.849L388,563L473,696L344.064,735.938L321.869,622.849Z" style="fill:url(#_Linear31);"/>
        <path id="right-side-of-head-and-neck1" serif:id="right side of head and neck" d="M43,421C43,421 37.631,414.769 40.018,413.59C62.124,402.677 175.634,355.521 175.634,355.521L291,427L308,525L336,482L301,567L276,438L172,372L43,421Z" style="fill:url(#_Linear32);"/>
        <g id="horn-right1" serif:id="horn right" transform="matrix(1,0,0,1,-18.203,-6.61926)">
            <path d="M193,382L343.837,330.432L229.604,402.144L202,387L193,382Z" style="fill:url(#_Linear33);"/>
        </g>
        <g id="horn-left1" serif:id="horn left" transform="matrix(1,0,0,1,-24.4697,-7.32091)">
            <path d="M197,384L251,409L382.555,369.696L197,384Z" style="fill:url(#_Linear34);"/>
        </g>
        <path id="face1" serif:id="face" d="M39,423C34.607,426.941 68,480 68,480L86.255,480.577L165.851,461.665L173.534,369.404C173.534,369.404 45.487,417.181 39,423Z" style="fill:url(#_Linear35);"/>
        <path id="neck-top1" serif:id="neck top" d="M172,369L282,425L303.065,578.394L153.859,663.132L150,638L172,369Z" style="fill:url(#_Linear36);"/>
        <path id="right-front-foot-tip1" serif:id="right front foot tip" d="M266,702L260,719L269,722L289,711L266,702Z" style="fill:url(#_Linear37);"/>
        <path id="neck-bottom1" serif:id="neck bottom" d="M153.859,663.132L303,717L315,626L301,567L153.859,663.132Z" style="fill:url(#_Linear38);"/>
        <path id="wing-41" serif:id="wing 4" d="M337.18,468.963L334.149,487.335L670,574C657.35,536.352 561.872,503.347 546,480L337.18,468.963Z" style="fill:url(#_Linear39);"/>
        <path id="wing-51" serif:id="wing 5" d="M334.12,487.171L684.454,576.962L600.639,651.621L606.424,592.516L334.12,487.171Z" style="fill:url(#_Linear40);"/>
        <path id="wing-11" serif:id="wing 1" d="M337,469C397.347,389.723 485.197,252.931 505.907,233.242C508.502,246.876 495.53,281.593 485.604,313.799C477.648,339.613 472.542,365.246 474.465,378.333L337,469Z" style="fill:url(#_Linear41);"/>
        <g id="wing-21" serif:id="wing 2" transform="matrix(1,0,0,1,-0.925322,0.167707)">
            <path d="M338.522,468.435L348.208,465.803L536.282,395.56L543.134,391.976C518.415,386.084 494.208,390.504 475.223,377.24L344.268,463.564L338.522,468.435Z" style="fill:url(#_Linear42);"/>
        </g>
        <path id="wing-31" serif:id="wing 3" d="M337.751,468.012L336.636,472.263L548.354,482.441C542.295,451.799 545.649,403.28 542.064,392.109L337.751,468.012Z" style="fill:url(#_Linear43);"/>
        <path id="middle-top1" serif:id="middle top" d="M301,567L334.541,484.963L388,563L326,634L314.621,604.984L301,567Z" style="fill:url(#_Linear44);"/>
        <path id="wing-81" serif:id="wing 8" d="M333.746,485.107L497,733L551,801L552,791L549,772L557,713L333.746,485.107Z" style="fill:url(#_Linear45);"/>
        <path id="tail-inside1" serif:id="tail inside" d="M625,776C625,776 703.231,695.533 736,679C794.989,649.239 841.286,663.643 865.141,678.855C878.075,687.103 883,697 883,697C883,697 908.805,625.469 811.068,601.3C753.963,587.178 701,617 701,617L625,776Z" style="fill:url(#_Linear46);"/>
        <path id="tail-outside1" serif:id="tail outside" d="M734.603,790.828C734.603,790.828 742.875,809.759 754.354,814.441C776.929,823.648 830.613,825.247 867,795C899.781,767.751 905.504,740.439 901.515,712C896.923,679.261 890.515,657.498 890.515,657.498C890.515,657.498 890.672,700.992 878.299,725.671C865.499,751.201 847.586,772.264 832,782C816.414,791.736 802.444,797.899 784,801C765.556,804.101 734.603,790.828 734.603,790.828Z" style="fill:url(#_Linear47);"/>
        <path id="tail-top1" serif:id="tail top" d="M699,605C699,605 753.367,588.32 789,591C824.633,593.68 874.069,611.445 890,656C908.59,707.992 855.601,768.78 834,782C802.73,801.138 767.232,812.548 744,802C727.195,794.37 734.115,769.19 744,774C749.836,776.84 736.367,783.435 746,792C757.781,802.476 820.109,799.727 859,744C897.891,688.273 883.288,650.521 865.921,634C848.555,617.479 820.257,598.72 781,600C741.743,601.28 702,616.569 702,616.569L699,605Z" style="fill:url(#_Linear48);"/>
        <path id="left-front-foot-top1" serif:id="left front foot top" d="M301,567L312,624C312,624 285.613,826.091 294.022,847.575C320.346,829.824 345.973,747.616 348.333,738.259C351.656,725.086 333.862,662.72 333.862,662.72L316,599L301,567Z" style="fill:url(#_Linear49);"/>
        <path id="left-front-foot-bottom1" serif:id="left front foot bottom" d="M294.542,847.481C299.178,849.556 360.665,799.149 360.665,799.149C360.665,799.149 370.026,791.954 369.075,787.168C364.464,763.976 333,660 333,660C333,660 339.25,696.631 342.405,709.858C345.281,721.92 285.965,843.64 294.542,847.481Z" style="fill:url(#_Linear50);"/>
    </g>
    <defs>
        <linearGradient id="_Linear1" x1="0" y1="0" x2="1" y2="0" gradientUnits="userSpaceOnUse" gradientTransform="matrix(1024,0,0,1024,-4.61853e-14,512)"><stop offset="0" style="stop-color:rgb(63,205,251);stop-opacity:0.3"/><stop offset="1" style="stop-color:rgb(32,153,204);stop-opacity:0.3"/></linearGradient>
        <linearGradient id="_Linear2" x1="0" y1="0" x2="1" y2="0" gradientUnits="userSpaceOnUse" gradientTransform="matrix(1024,0,0,1024,-4.61853e-14,512)"><stop offset="0" style="stop-color:rgb(63,205,251);stop-opacity:1"/><stop offset="1" style="stop-color:rgb(28,176,228);stop-opacity:1"/></linearGradient>
        <linearGradient id="_Linear3" x1="0" y1="0" x2="1" y2="0" gradientUnits="userSpaceOnUse" gradientTransform="matrix(326.864,409.775,-289.669,231.059,347.516,439.278)"><stop offset="0" style="stop-color:rgb(19,66,129);stop-opacity:1"/><stop offset="1" style="stop-color:rgb(0,19,45);stop-opacity:1"/></linearGradient>
        <linearGradient id="_Linear4" x1="0" y1="0" x2="1" y2="0" gradientUnits="userSpaceOnUse" gradientTransform="matrix(-304.629,-730.309,516.253,-215.341,868.355,1256.16)"><stop offset="0" style="stop-color:rgb(19,66,129);stop-opacity:1"/><stop offset="1" style="stop-color:rgb(0,19,45);stop-opacity:1"/></linearGradient>
        <linearGradient id="_Linear5" x1="0" y1="0" x2="1" y2="0" gradientUnits="userSpaceOnUse" gradientTransform="matrix(93.1437,-285.845,202.063,65.8429,572.532,798.7)"><stop offset="0" style="stop-color:rgb(19,66,129);stop-opacity:1"/><stop offset="1" style="stop-color:rgb(0,19,45);stop-opacity:1"/></linearGradient>
        <linearGradient id="_Linear6" x1="0" y1="0" x2="1" y2="0" gradientUnits="userSpaceOnUse" gradientTransform="matrix(-513.506,-533.694,377.266,-362.995,570.141,668.583)"><stop offset="0" style="stop-color:rgb(19,66,129);stop-opacity:1"/><stop offset="1" style="stop-color:rgb(0,19,45);stop-opacity:1"/></linearGradient>
        <linearGradient id="_Linear7" x1="0" y1="0" x2="1" y2="0" gradientUnits="userSpaceOnUse" gradientTransform="matrix(109.316,327.126,-231.244,77.2747,314.519,433.591)"><stop offset="0" style="stop-color:rgb(19,66,129);stop-opacity:1"/><stop offset="1" style="stop-color:rgb(0,19,45);stop-opacity:1"/></linearGradient>
        <linearGradient id="_Linear8" x1="0" y1="0" x2="1" y2="0" gradientUnits="userSpaceOnUse" gradientTransform="matrix(238.622,535.497,-378.541,168.681,114.9,66.986)"><stop offset="0" style="stop-color:rgb(19,66,129);stop-opacity:1"/><stop offset="1" style="stop-color:rgb(0,19,45);stop-opacity:1"/></linearGradient>
        <linearGradient id="_Linear9" x1="0" y1="0" x2="1" y2="0" gradientUnits="userSpaceOnUse" gradientTransform="matrix(-382.495,259.814,-183.661,-270.385,423.685,282.186)"><stop offset="0" style="stop-color:rgb(19,66,129);stop-opacity:1"/><stop offset="1" style="stop-color:rgb(0,19,45);stop-opacity:1"/></linearGradient>
        <linearGradient id="_Linear10" x1="0" y1="0" x2="1" y2="0" gradientUnits="userSpaceOnUse" gradientTransform="matrix(4.09105,121.25,-85.7112,2.89195,300.653,355.026)"><stop offset="0" style="stop-color:rgb(19,66,129);stop-opacity:1"/><stop offset="1" style="stop-color:rgb(0,19,45);stop-opacity:1"/></linearGradient>
        <linearGradient id="_Linear11" x1="0" y1="0" x2="1" y2="0" gradientUnits="userSpaceOnUse" gradientTransform="matrix(153.294,16.9277,-11.9661,108.363,111.727,428.761)"><stop offset="0" style="stop-color:rgb(19,66,129);stop-opacity:1"/><stop offset="1" style="stop-color:rgb(0,19,45);stop-opacity:1"/></linearGradient>
        <linearGradient id="_Linear12" x1="0" y1="0" x2="1" y2="0" gradientUnits="userSpaceOnUse" gradientTransform="matrix(90.9696,86.54,-61.1748,64.3061,223.651,518.444)"><stop offset="0" style="stop-color:rgb(19,66,129);stop-opacity:1"/><stop offset="1" style="stop-color:rgb(0,19,45);stop-opacity:1"/></linearGradient>
        <linearGradient id="_Linear13" x1="0" y1="0" x2="1" y2="0" gradientUnits="userSpaceOnUse" gradientTransform="matrix(-0.695004,64.1615,-45.3556,-0.491295,255.472,610.016)"><stop offset="0" style="stop-color:rgb(19,66,129);stop-opacity:1"/><stop offset="1" style="stop-color:rgb(0,19,45);stop-opacity:1"/></linearGradient>
        <linearGradient id="_Linear14" x1="0" y1="0" x2="1" y2="0" gradientUnits="userSpaceOnUse" gradientTransform="matrix(227.851,143.392,-101.363,161.067,184.658,591.63)"><stop offset="0" style="stop-color:rgb(19,66,129);stop-opacity:1"/><stop offset="1" style="stop-color:rgb(0,19,45);stop-opacity:1"/></linearGradient>
        <linearGradient id="_Linear15" x1="0" y1="0" x2="1" y2="0" gradientUnits="userSpaceOnUse" gradientTransform="matrix(-14.1683,54.9713,-38.859,-10.0155,564.497,515.881)"><stop offset="0" style="stop-color:rgb(19,66,129);stop-opacity:1"/><stop offset="1" style="stop-color:rgb(0,19,45);stop-opacity:1"/></linearGradient>
        <linearGradient id="_Linear16" x1="0" y1="0" x2="1" y2="0" gradientUnits="userSpaceOnUse" gradientTransform="matrix(-656.838,-265.516,187.692,-464.316,717.424,641.889)"><stop offset="0" style="stop-color:rgb(19,66,129);stop-opacity:1"/><stop offset="1" style="stop-color:rgb(0,19,45);stop-opacity:1"/></linearGradient>
        <linearGradient id="_Linear17" x1="0" y1="0" x2="1" y2="0" gradientUnits="userSpaceOnUse" gradientTransform="matrix(63.9098,291.754,-291.754,63.9098,404.747,236.059)"><stop offset="0" style="stop-color:rgb(19,66,129);stop-opacity:1"/><stop offset="1" style="stop-color:rgb(0,19,45);stop-opacity:1"/></linearGradient>
        <linearGradient id="_Linear18" x1="0" y1="0" x2="1" y2="0" gradientUnits="userSpaceOnUse" gradientTransform="matrix(-129.057,-154.776,109.411,-91.2296,488.29,449.339)"><stop offset="0" style="stop-color:rgb(19,66,129);stop-opacity:1"/><stop offset="1" style="stop-color:rgb(0,19,45);stop-opacity:1"/></linearGradient>
        <linearGradient id="_Linear19" x1="0" y1="0" x2="1" y2="0" gradientUnits="userSpaceOnUse" gradientTransform="matrix(27.6914,152.787,-108.005,19.575,480.076,409.289)"><stop offset="0" style="stop-color:rgb(19,66,129);stop-opacity:1"/><stop offset="1" style="stop-color:rgb(0,19,45);stop-opacity:1"/></linearGradient>
        <linearGradient id="_Linear20" x1="0" y1="0" x2="1" y2="0" gradientUnits="userSpaceOnUse" gradientTransform="matrix(75.183,80.6668,-57.023,53.1466,323.865,543.289)"><stop offset="0" style="stop-color:rgb(19,66,129);stop-opacity:1"/><stop offset="1" style="stop-color:rgb(0,19,45);stop-opacity:1"/></linearGradient>
        <linearGradient id="_Linear21" x1="0" y1="0" x2="1" y2="0" gradientUnits="userSpaceOnUse" gradientTransform="matrix(-340.756,-768.516,543.261,-240.879,637.649,1050.29)"><stop offset="0" style="stop-color:rgb(19,66,129);stop-opacity:1"/><stop offset="1" style="stop-color:rgb(0,19,45);stop-opacity:1"/></linearGradient>
        <linearGradient id="_Linear22" x1="0" y1="0" x2="1" y2="0" gradientUnits="userSpaceOnUse" gradientTransform="matrix(-1110.75,420.089,-296.959,-785.183,1263.98,438.648)"><stop offset="0" style="stop-color:rgb(19,66,129);stop-opacity:1"/><stop offset="1" style="stop-color:rgb(0,19,45);stop-opacity:1"/></linearGradient>
        <linearGradient id="_Linear23" x1="0" y1="0" x2="1" y2="0" gradientUnits="userSpaceOnUse" gradientTransform="matrix(-226.253,105.939,-74.8877,-159.938,932.583,668.511)"><stop offset="0" style="stop-color:rgb(19,66,129);stop-opacity:1"/><stop offset="1" style="stop-color:rgb(0,19,45);stop-opacity:1"/></linearGradient>
        <linearGradient id="_Linear24" x1="0" y1="0" x2="1" y2="0" gradientUnits="userSpaceOnUse" gradientTransform="matrix(870,0,0,615,38,541.5)"><stop offset="0" style="stop-color:rgb(19,66,129);stop-opacity:1"/><stop offset="1" style="stop-color:rgb(0,19,45);stop-opacity:1"/></linearGradient>
        <linearGradient id="_Linear25" x1="0" y1="0" x2="1" y2="0" gradientUnits="userSpaceOnUse" gradientTransform="matrix(98.9313,24.3719,-17.2284,69.9342,269.932,761.763)"><stop offset="0" style="stop-color:rgb(19,66,129);stop-opacity:1"/><stop offset="1" style="stop-color:rgb(0,19,45);stop-opacity:1"/></linearGradient>
        <linearGradient id="_Linear26" x1="0" y1="0" x2="1" y2="0" gradientUnits="userSpaceOnUse" gradientTransform="matrix(252.802,-10.2586,7.25178,178.705,269.015,897.073)"><stop offset="0" style="stop-color:rgb(19,66,129);stop-opacity:1"/><stop offset="1" style="stop-color:rgb(0,19,45);stop-opacity:1"/></linearGradient>
        <linearGradient id="_Linear27" x1="0" y1="0" x2="1" y2="0" gradientUnits="userSpaceOnUse" gradientTransform="matrix(326.864,409.775,-289.669,231.059,347.516,439.278)"><stop offset="0" style="stop-color:rgb(27,120,194);stop-opacity:1"/><stop offset="1" style="stop-color:rgb(0,31,72);stop-opacity:1"/></linearGradient>
        <linearGradient id="_Linear28" x1="0" y1="0" x2="1" y2="0" gradientUnits="userSpaceOnUse" gradientTransform="matrix(-304.629,-730.309,516.253,-215.341,868.355,1256.16)"><stop offset="0" style="stop-color:rgb(27,120,194);stop-opacity:1"/><stop offset="1" style="stop-color:rgb(0,31,72);stop-opacity:1"/></linearGradient>
        <linearGradient id="_Linear29" x1="0" y1="0" x2="1" y2="0" gradientUnits="userSpaceOnUse" gradientTransform="matrix(93.1437,-285.845,202.063,65.8429,572.532,798.7)"><stop offset="0" style="stop-color:rgb(27,120,194);stop-opacity:1"/><stop offset="1" style="stop-color:rgb(0,31,72);stop-opacity:1"/></linearGradient>
        <linearGradient id="_Linear30" x1="0" y1="0" x2="1" y2="0" gradientUnits="userSpaceOnUse" gradientTransform="matrix(-513.506,-533.694,377.266,-362.995,570.141,668.583)"><stop offset="0" style="stop-color:rgb(27,120,194);stop-opacity:1"/><stop offset="1" style="stop-color:rgb(0,31,72);stop-opacity:1"/></linearGradient>
        <linearGradient id="_Linear31" x1="0" y1="0" x2="1" y2="0" gradientUnits="userSpaceOnUse" gradientTransform="matrix(109.316,327.126,-231.244,77.2747,314.519,433.591)"><stop offset="0" style="stop-color:rgb(27,120,194);stop-opacity:1"/><stop offset="1" style="stop-color:rgb(0,31,72);stop-opacity:1"/></linearGradient>
        <linearGradient id="_Linear32" x1="0" y1="0" x2="1" y2="0" gradientUnits="userSpaceOnUse" gradientTransform="matrix(238.622,535.497,-378.541,168.681,114.9,66.986)"><stop offset="0" style="stop-color:rgb(27,120,194);stop-opacity:1"/><stop offset="1" style="stop-color:rgb(0,31,72);stop-opacity:1"/></linearGradient>
        <linearGradient id="_Linear33" x1="0" y1="0" x2="1" y2="0" gradientUnits="userSpaceOnUse" gradientTransform="matrix(-382.495,259.814,-183.661,-270.385,423.685,282.186)"><stop offset="0" style="stop-color:rgb(27,120,194);stop-opacity:1"/><stop offset="1" style="stop-color:rgb(0,31,72);stop-opacity:1"/></linearGradient>
        <linearGradient id="_Linear34" x1="0" y1="0" x2="1" y2="0" gradientUnits="userSpaceOnUse" gradientTransform="matrix(4.09105,121.25,-85.7112,2.89195,300.653,355.026)"><stop offset="0" style="stop-color:rgb(27,120,194);stop-opacity:1"/><stop offset="1" style="stop-color:rgb(0,31,72);stop-opacity:1"/></linearGradient>
        <linearGradient id="_Linear35" x1="0" y1="0" x2="1" y2="0" gradientUnits="userSpaceOnUse" gradientTransform="matrix(153.294,16.9277,-11.9661,108.363,111.727,428.761)"><stop offset="0" style="stop-color:rgb(27,120,194);stop-opacity:1"/><stop offset="1" style="stop-color:rgb(0,31,72);stop-opacity:1"/></linearGradient>
        <linearGradient id="_Linear36" x1="0" y1="0" x2="1" y2="0" gradientUnits="userSpaceOnUse" gradientTransform="matrix(90.9696,86.54,-61.1748,64.3061,223.651,518.444)"><stop offset="0" style="stop-color:rgb(27,120,194);stop-opacity:1"/><stop offset="1" style="stop-color:rgb(0,31,72);stop-opacity:1"/></linearGradient>
        <linearGradient id="_Linear37" x1="0" y1="0" x2="1" y2="0" gradientUnits="userSpaceOnUse" gradientTransform="matrix(-0.695004,64.1615,-45.3556,-0.491295,255.472,610.016)"><stop offset="0" style="stop-color:rgb(27,120,194);stop-opacity:1"/><stop offset="1" style="stop-color:rgb(0,31,72);stop-opacity:1"/></linearGradient>
        <linearGradient id="_Linear38" x1="0" y1="0" x2="1" y2="0" gradientUnits="userSpaceOnUse" gradientTransform="matrix(227.851,143.392,-101.363,161.067,184.658,591.63)"><stop offset="0" style="stop-color:rgb(27,120,194);stop-opacity:1"/><stop offset="1" style="stop-color:rgb(0,31,72);stop-opacity:1"/></linearGradient>
        <linearGradient id="_Linear39" x1="0" y1="0" x2="1" y2="0" gradientUnits="userSpaceOnUse" gradientTransform="matrix(-14.1683,54.9713,-38.859,-10.0155,564.497,515.881)"><stop offset="0" style="stop-color:rgb(27,120,194);stop-opacity:1"/><stop offset="1" style="stop-color:rgb(0,31,72);stop-opacity:1"/></linearGradient>
        <linearGradient id="_Linear40" x1="0" y1="0" x2="1" y2="0" gradientUnits="userSpaceOnUse" gradientTransform="matrix(-656.838,-265.516,187.692,-464.316,717.424,641.889)"><stop offset="0" style="stop-color:rgb(27,120,194);stop-opacity:1"/><stop offset="1" style="stop-color:rgb(0,31,72);stop-opacity:1"/></linearGradient>
        <linearGradient id="_Linear41" x1="0" y1="0" x2="1" y2="0" gradientUnits="userSpaceOnUse" gradientTransform="matrix(63.9098,291.754,-291.754,63.9098,404.747,236.059)"><stop offset="0" style="stop-color:rgb(27,120,194);stop-opacity:1"/><stop offset="1" style="stop-color:rgb(0,31,72);stop-opacity:1"/></linearGradient>
        <linearGradient id="_Linear42" x1="0" y1="0" x2="1" y2="0" gradientUnits="userSpaceOnUse" gradientTransform="matrix(-129.057,-154.776,109.411,-91.2296,488.29,449.339)"><stop offset="0" style="stop-color:rgb(27,120,194);stop-opacity:1"/><stop offset="1" style="stop-color:rgb(0,31,72);stop-opacity:1"/></linearGradient>
        <linearGradient id="_Linear43" x1="0" y1="0" x2="1" y2="0" gradientUnits="userSpaceOnUse" gradientTransform="matrix(27.6914,152.787,-108.005,19.575,480.076,409.289)"><stop offset="0" style="stop-color:rgb(27,120,194);stop-opacity:1"/><stop offset="1" style="stop-color:rgb(0,31,72);stop-opacity:1"/></linearGradient>
        <linearGradient id="_Linear44" x1="0" y1="0" x2="1" y2="0" gradientUnits="userSpaceOnUse" gradientTransform="matrix(75.183,80.6668,-57.023,53.1466,323.865,543.289)"><stop offset="0" style="stop-color:rgb(27,120,194);stop-opacity:1"/><stop offset="1" style="stop-color:rgb(0,31,72);stop-opacity:1"/></linearGradient>
        <linearGradient id="_Linear45" x1="0" y1="0" x2="1" y2="0" gradientUnits="userSpaceOnUse" gradientTransform="matrix(-340.756,-768.516,543.261,-240.879,637.649,1050.29)"><stop offset="0" style="stop-color:rgb(27,120,194);stop-opacity:1"/><stop offset="1" style="stop-color:rgb(0,31,72);stop-opacity:1"/></linearGradient>
        <linearGradient id="_Linear46" x1="0" y1="0" x2="1" y2="0" gradientUnits="userSpaceOnUse" gradientTransform="matrix(-1110.75,420.089,-296.959,-785.183,1263.98,438.648)"><stop offset="0" style="stop-color:rgb(27,120,194);stop-opacity:1"/><stop offset="1" style="stop-color:rgb(0,31,72);stop-opacity:1"/></linearGradient>
        <linearGradient id="_Linear47" x1="0" y1="0" x2="1" y2="0" gradientUnits="userSpaceOnUse" gradientTransform="matrix(-226.253,105.939,-74.8877,-159.938,932.583,668.511)"><stop offset="0" style="stop-color:rgb(27,120,194);stop-opacity:1"/><stop offset="1" style="stop-color:rgb(0,31,72);stop-opacity:1"/></linearGradient>
        <linearGradient id="_Linear48" x1="0" y1="0" x2="1" y2="0" gradientUnits="userSpaceOnUse" gradientTransform="matrix(870,0,0,615,38,541.5)"><stop offset="0" style="stop-color:rgb(27,120,194);stop-opacity:1"/><stop offset="1" style="stop-color:rgb(0,31,72);stop-opacity:1"/></linearGradient>
        <linearGradient id="_Linear49" x1="0" y1="0" x2="1" y2="0" gradientUnits="userSpaceOnUse" gradientTransform="matrix(98.9313,24.3719,-17.2284,69.9342,269.932,761.763)"><stop offset="0" style="stop-color:rgb(27,120,194);stop-opacity:1"/><stop offset="1" style="stop-color:rgb(0,31,72);stop-opacity:1"/></linearGradient>
        <linearGradient id="_Linear50" x1="0" y1="0" x2="1" y2="0" gradientUnits="userSpaceOnUse" gradientTransform="matrix(252.802,-10.2586,7.25178,178.705,269.015,897.073)"><stop offset="0" style="stop-color:rgb(27,120,194);stop-opacity:1"/><stop offset="1" style="stop-color:rgb(0,31,72);stop-opacity:1"/></linearGradient>
    </defs>
</svg>
