<svg viewBox="0 0 1024 1024" xml:space="preserve" style="fill-rule:evenodd;clip-rule:evenodd;stroke-linejoin:round;stroke-miterlimit:2" xmlns="http://www.w3.org/2000/svg"><circle cx="512" cy="512" r="512" style="fill:#fff;fill-opacity:.3"/><path d="M512 0c282.58 0 512 229.42 512 512 0 282.58-229.42 512-512 512C229.42 1024 0 794.58 0 512 0 229.42 229.42 0 512 0zm0 20c271.542 0 492 220.458 492 492 0 271.542-220.458 492-492 492-271.542 0-492-220.458-492-492C20 240.458 240.458 20 512 20z" style="fill:url(#a)"/><path d="M594.569 741.635s10.954 32.21 14.458 37.942c1.217 1.991 7.988 1.187 9.97.595 1.982-.591 4.894-3.718 4.894-3.718z" style="fill:url(#b)" transform="rotate(11.936 724.676 872.264) scale(1.06338)"/><path d="M587.729 637.119 563 699l62.478 75.999 85.482-153.644-26.506-44.393L602 650z" style="fill:url(#c)" transform="rotate(11.936 717.885 860.268) scale(1.06338)"/><path d="m600.639 651.621-13.78-12.355 19.565-46.75z" style="fill:url(#d)" transform="rotate(11.936 717.885 860.268) scale(1.06338)"/><path d="M335.335 487.641 557 713l49.424-120.484z" style="fill:url(#e)" transform="rotate(11.936 717.885 860.268) scale(1.06338)"/><path d="M321.869 622.849 388 563l85 133-128.936 39.938z" style="fill:url(#f)" transform="rotate(11.936 717.885 860.268) scale(1.06338)"/><path d="M43 421s-5.369-6.231-2.982-7.41c22.106-10.913 135.616-58.069 135.616-58.069L291 427l17 98 28-43-35 85-25-129-104-66z" style="fill:url(#g)" transform="rotate(11.936 717.885 860.268) scale(1.06338)"/><path d="m193 382 150.837-51.568-114.233 71.712L202 387z" style="fill:url(#h)" transform="rotate(11.936 761.23 771.208) scale(1.06338)"/><path d="m197 384 54 25 131.555-39.304z" style="fill:url(#i)" transform="rotate(11.936 768.13 739.708) scale(1.06338)"/><path d="M39 423c-4.393 3.941 29 57 29 57l18.255.577 79.596-18.912 7.683-92.261S45.487 417.181 39 423z" style="fill:url(#j)" transform="rotate(11.936 717.885 860.268) scale(1.06338)"/><path d="m172 369 110 56 21.065 153.394-149.206 84.738L150 638z" style="fill:url(#k)" transform="rotate(11.936 717.885 860.268) scale(1.06338)"/><path d="m266 702-6 17 9 3 20-11z" style="fill:url(#l)" transform="rotate(11.936 717.885 860.268) scale(1.06338)"/><path d="M153.859 663.132 303 717l12-91-14-59z" style="fill:url(#m)" transform="rotate(11.936 717.885 860.268) scale(1.06338)"/><path d="m337.18 468.963-3.031 18.372L670 574c-12.65-37.648-108.128-70.653-124-94z" style="fill:url(#n)" transform="rotate(11.936 717.885 860.268) scale(1.06338)"/><path d="m334.12 487.171 350.334 89.791-83.815 74.659 5.785-59.105z" style="fill:url(#o)" transform="rotate(11.936 717.885 860.268) scale(1.06338)"/><path d="M337 469c60.347-79.277 148.197-216.069 168.907-235.758 2.595 13.634-10.377 48.351-20.303 80.557-7.956 25.814-13.062 51.447-11.139 64.534z" style="fill:url(#p)" transform="rotate(11.936 717.885 860.268) scale(1.06338)"/><path d="m338.522 468.435 9.686-2.632 188.074-70.243 6.852-3.584c-24.719-5.892-48.926-1.472-67.911-14.736l-130.955 86.324z" style="fill:url(#q)" transform="rotate(11.936 717.524 855.473) scale(1.06338)"/><path d="m337.751 468.012-1.115 4.251 211.718 10.178c-6.059-30.642-2.705-79.161-6.29-90.332z" style="fill:url(#r)" transform="rotate(11.936 717.885 860.268) scale(1.06338)"/><path d="m301 567 33.541-82.037L388 563l-62 71-11.379-29.016z" style="fill:url(#s)" transform="rotate(11.936 717.885 860.268) scale(1.06338)"/><path d="M333.746 485.107 497 733l54 68 1-10-3-19 8-59z" style="fill:url(#t)" transform="rotate(11.936 717.885 860.268) scale(1.06338)"/><path d="M625 776s78.231-80.467 111-97c58.989-29.761 105.286-15.357 129.141-.145C878.075 687.103 883 697 883 697s25.805-71.531-71.932-95.7C753.963 587.178 701 617 701 617z" style="fill:url(#u)" transform="rotate(11.936 717.885 860.268) scale(1.06338)"/><path d="M734.603 790.828s8.272 18.931 19.751 23.613C776.929 823.648 830.613 825.247 867 795c32.781-27.249 38.504-54.561 34.515-83-4.592-32.739-11-54.502-11-54.502s.157 43.494-12.216 68.173c-12.8 25.53-30.713 46.593-46.299 56.329-15.586 9.736-29.556 15.899-48 19-18.444 3.101-49.397-10.172-49.397-10.172z" style="fill:url(#v)" transform="rotate(11.936 717.885 860.268) scale(1.06338)"/><path d="M699 605s54.367-16.68 90-14c35.633 2.68 85.069 20.445 101 65 18.59 51.992-34.399 112.78-56 126-31.27 19.138-66.768 30.548-90 20-16.805-7.63-9.885-32.81 0-28 5.836 2.84-7.633 9.435 2 18 11.781 10.476 74.109 7.727 113-48 38.891-55.727 24.288-93.479 6.921-110-17.366-16.521-45.664-35.28-84.921-34-39.257 1.28-79 16.569-79 16.569z" style="fill:url(#w)" transform="rotate(11.936 717.885 860.268) scale(1.06338)"/><path d="m301 567 11 57s-26.387 202.091-17.978 223.575c26.324-17.751 51.951-99.959 54.311-109.316 3.323-13.173-14.471-75.539-14.471-75.539L316 599z" style="fill:url(#x)" transform="rotate(11.936 717.885 860.268) scale(1.06338)"/><path d="M294.542 847.481c4.636 2.075 66.123-48.332 66.123-48.332s9.361-7.195 8.41-11.981C364.464 763.976 333 660 333 660s6.25 36.631 9.405 49.858c2.876 12.062-56.44 133.782-47.863 137.623z" style="fill:url(#y)" transform="rotate(11.936 717.885 860.268) scale(1.06338)"/><defs><linearGradient id="a" x1="0" y1="0" x2="1" y2="0" gradientUnits="userSpaceOnUse" gradientTransform="matrix(1024 0 0 1024 0 512)"><stop offset="0" style="stop-color:#3fcdfb;stop-opacity:1"/><stop offset="1" style="stop-color:#1cb0e4;stop-opacity:1"/></linearGradient><linearGradient id="b" x1="0" y1="0" x2="1" y2="0" gradientUnits="userSpaceOnUse" gradientTransform="matrix(326.864 409.775 -289.669 231.059 347.516 439.278)"><stop offset="0" style="stop-color:#1b78c2;stop-opacity:1"/><stop offset="1" style="stop-color:#001f48;stop-opacity:1"/></linearGradient><linearGradient id="c" x1="0" y1="0" x2="1" y2="0" gradientUnits="userSpaceOnUse" gradientTransform="matrix(-304.629 -730.309 516.253 -215.341 868.355 1256.16)"><stop offset="0" style="stop-color:#1b78c2;stop-opacity:1"/><stop offset="1" style="stop-color:#001f48;stop-opacity:1"/></linearGradient><linearGradient id="d" x1="0" y1="0" x2="1" y2="0" gradientUnits="userSpaceOnUse" gradientTransform="matrix(93.1437 -285.845 202.063 65.8429 572.532 798.7)"><stop offset="0" style="stop-color:#1b78c2;stop-opacity:1"/><stop offset="1" style="stop-color:#001f48;stop-opacity:1"/></linearGradient><linearGradient id="e" x1="0" y1="0" x2="1" y2="0" gradientUnits="userSpaceOnUse" gradientTransform="matrix(-513.506 -533.694 377.266 -362.995 570.141 668.583)"><stop offset="0" style="stop-color:#1b78c2;stop-opacity:1"/><stop offset="1" style="stop-color:#001f48;stop-opacity:1"/></linearGradient><linearGradient id="f" x1="0" y1="0" x2="1" y2="0" gradientUnits="userSpaceOnUse" gradientTransform="matrix(109.316 327.126 -231.244 77.2747 314.519 433.591)"><stop offset="0" style="stop-color:#1b78c2;stop-opacity:1"/><stop offset="1" style="stop-color:#001f48;stop-opacity:1"/></linearGradient><linearGradient id="g" x1="0" y1="0" x2="1" y2="0" gradientUnits="userSpaceOnUse" gradientTransform="matrix(238.622 535.497 -378.541 168.681 114.9 66.986)"><stop offset="0" style="stop-color:#1b78c2;stop-opacity:1"/><stop offset="1" style="stop-color:#001f48;stop-opacity:1"/></linearGradient><linearGradient id="h" x1="0" y1="0" x2="1" y2="0" gradientUnits="userSpaceOnUse" gradientTransform="matrix(-382.495 259.814 -183.661 -270.385 423.685 282.186)"><stop offset="0" style="stop-color:#1b78c2;stop-opacity:1"/><stop offset="1" style="stop-color:#001f48;stop-opacity:1"/></linearGradient><linearGradient id="i" x1="0" y1="0" x2="1" y2="0" gradientUnits="userSpaceOnUse" gradientTransform="matrix(4.09105 121.25 -85.7112 2.89195 300.653 355.026)"><stop offset="0" style="stop-color:#1b78c2;stop-opacity:1"/><stop offset="1" style="stop-color:#001f48;stop-opacity:1"/></linearGradient><linearGradient id="j" x1="0" y1="0" x2="1" y2="0" gradientUnits="userSpaceOnUse" gradientTransform="matrix(153.294 16.9277 -11.9661 108.363 111.727 428.761)"><stop offset="0" style="stop-color:#1b78c2;stop-opacity:1"/><stop offset="1" style="stop-color:#001f48;stop-opacity:1"/></linearGradient><linearGradient id="k" x1="0" y1="0" x2="1" y2="0" gradientUnits="userSpaceOnUse" gradientTransform="matrix(90.9696 86.54 -61.1748 64.3061 223.651 518.444)"><stop offset="0" style="stop-color:#1b78c2;stop-opacity:1"/><stop offset="1" style="stop-color:#001f48;stop-opacity:1"/></linearGradient><linearGradient id="l" x1="0" y1="0" x2="1" y2="0" gradientUnits="userSpaceOnUse" gradientTransform="matrix(-.695 64.1615 -45.3556 -.4913 255.472 610.016)"><stop offset="0" style="stop-color:#1b78c2;stop-opacity:1"/><stop offset="1" style="stop-color:#001f48;stop-opacity:1"/></linearGradient><linearGradient id="m" x1="0" y1="0" x2="1" y2="0" gradientUnits="userSpaceOnUse" gradientTransform="matrix(227.851 143.392 -101.363 161.067 184.658 591.63)"><stop offset="0" style="stop-color:#1b78c2;stop-opacity:1"/><stop offset="1" style="stop-color:#001f48;stop-opacity:1"/></linearGradient><linearGradient id="n" x1="0" y1="0" x2="1" y2="0" gradientUnits="userSpaceOnUse" gradientTransform="matrix(-14.1683 54.9713 -38.859 -10.0155 564.497 515.881)"><stop offset="0" style="stop-color:#1b78c2;stop-opacity:1"/><stop offset="1" style="stop-color:#001f48;stop-opacity:1"/></linearGradient><linearGradient id="o" x1="0" y1="0" x2="1" y2="0" gradientUnits="userSpaceOnUse" gradientTransform="matrix(-656.838 -265.516 187.692 -464.316 717.424 641.889)"><stop offset="0" style="stop-color:#1b78c2;stop-opacity:1"/><stop offset="1" style="stop-color:#001f48;stop-opacity:1"/></linearGradient><linearGradient id="p" x1="0" y1="0" x2="1" y2="0" gradientUnits="userSpaceOnUse" gradientTransform="scale(298.6718) rotate(77.644 .186 1.237)"><stop offset="0" style="stop-color:#1b78c2;stop-opacity:1"/><stop offset="1" style="stop-color:#001f48;stop-opacity:1"/></linearGradient><linearGradient id="q" x1="0" y1="0" x2="1" y2="0" gradientUnits="userSpaceOnUse" gradientTransform="matrix(-129.057 -154.776 109.411 -91.2296 488.29 449.339)"><stop offset="0" style="stop-color:#1b78c2;stop-opacity:1"/><stop offset="1" style="stop-color:#001f48;stop-opacity:1"/></linearGradient><linearGradient id="r" x1="0" y1="0" x2="1" y2="0" gradientUnits="userSpaceOnUse" gradientTransform="matrix(27.6914 152.787 -108.005 19.575 480.076 409.289)"><stop offset="0" style="stop-color:#1b78c2;stop-opacity:1"/><stop offset="1" style="stop-color:#001f48;stop-opacity:1"/></linearGradient><linearGradient id="s" x1="0" y1="0" x2="1" y2="0" gradientUnits="userSpaceOnUse" gradientTransform="matrix(75.183 80.6668 -57.023 53.1466 323.865 543.289)"><stop offset="0" style="stop-color:#1b78c2;stop-opacity:1"/><stop offset="1" style="stop-color:#001f48;stop-opacity:1"/></linearGradient><linearGradient id="t" x1="0" y1="0" x2="1" y2="0" gradientUnits="userSpaceOnUse" gradientTransform="matrix(-340.756 -768.516 543.261 -240.879 637.649 1050.29)"><stop offset="0" style="stop-color:#1b78c2;stop-opacity:1"/><stop offset="1" style="stop-color:#001f48;stop-opacity:1"/></linearGradient><linearGradient id="u" x1="0" y1="0" x2="1" y2="0" gradientUnits="userSpaceOnUse" gradientTransform="matrix(-1110.75 420.089 -296.959 -785.183 1263.98 438.648)"><stop offset="0" style="stop-color:#1b78c2;stop-opacity:1"/><stop offset="1" style="stop-color:#001f48;stop-opacity:1"/></linearGradient><linearGradient id="v" x1="0" y1="0" x2="1" y2="0" gradientUnits="userSpaceOnUse" gradientTransform="matrix(-226.253 105.939 -74.8877 -159.938 932.583 668.511)"><stop offset="0" style="stop-color:#1b78c2;stop-opacity:1"/><stop offset="1" style="stop-color:#001f48;stop-opacity:1"/></linearGradient><linearGradient id="w" x1="0" y1="0" x2="1" y2="0" gradientUnits="userSpaceOnUse" gradientTransform="matrix(870 0 0 615 38 541.5)"><stop offset="0" style="stop-color:#1b78c2;stop-opacity:1"/><stop offset="1" style="stop-color:#001f48;stop-opacity:1"/></linearGradient><linearGradient id="x" x1="0" y1="0" x2="1" y2="0" gradientUnits="userSpaceOnUse" gradientTransform="matrix(98.9313 24.3719 -17.2284 69.9342 269.932 761.763)"><stop offset="0" style="stop-color:#1b78c2;stop-opacity:1"/><stop offset="1" style="stop-color:#001f48;stop-opacity:1"/></linearGradient><linearGradient id="y" x1="0" y1="0" x2="1" y2="0" gradientUnits="userSpaceOnUse" gradientTransform="matrix(252.802 -10.2586 7.25178 178.705 269.015 897.073)"><stop offset="0" style="stop-color:#1b78c2;stop-opacity:1"/><stop offset="1" style="stop-color:#001f48;stop-opacity:1"/></linearGradient></defs></svg>